<svg width="700" height="300" xmlns="http://www.w3.org/2000/svg">
 <g id="Layer_1">
  <title>Layer 1</title>
  <path id="svg_7" d="m220.89651,75.30478l9.33174,-8.58919l-9.33174,-8.58925l5.33356,-4.90866l14.66644,13.49791l-14.66644,13.5021" stroke-width="0" stroke="#000000" fill="#000000"/>
  <path id="svg_8" d="m435.89651,72.30478l9.33174,-8.5892l-9.33174,-8.58925l5.33356,-4.90865l14.66644,13.4979l-14.66644,13.5021" stroke-width="0" stroke="#000000" fill="#000000"/>
  <g id="svg_20">
   <rect stroke="#000000" id="svg_4" height="42" width="201" y="44" x="477" fill="none"/>
   <text xml:space="preserve" text-anchor="start" font-family="'Open Sans'" font-size="20" stroke-width="0" id="svg_5" y="72" x="488.6" stroke="#000000" fill="#000000">Encrypted Message</text>
  </g>
  <rect stroke="#000000" id="svg_9" height="65" width="160" y="33.4" x="258" fill="none"/>
  <text xml:space="preserve" text-anchor="start" font-family="'Open Sans'" font-size="20" id="svg_10" y="62.39999" x="274.6" stroke-width="0" stroke="#000000" fill="#000000">Alice's Private</text>
  <text stroke="#000000" xml:space="preserve" text-anchor="start" font-family="'Open Sans'" font-size="20" stroke-width="0" id="svg_11" y="85.39999" x="317.6" fill="#000000">Key</text>
  <g id="svg_22">
   <rect stroke="#000000" stroke-dasharray="5,5" id="svg_1" height="100.99999" width="160" y="17.4" x="43" fill="none"/>
   <text xml:space="preserve" text-anchor="start" font-family="'Open Sans'" font-size="20" stroke-width="0" id="svg_2" y="46.39999" x="57" stroke="#000000" fill="#000000">Message Sent</text>
   <text xml:space="preserve" text-anchor="start" font-family="'Open Sans'" font-size="20" stroke-width="0" id="svg_13" y="75.39999" x="74.6" stroke-dasharray="5,5" stroke="#000000" fill="#000000">by Alice to</text>
   <text xml:space="preserve" text-anchor="start" font-family="'Open Sans'" font-size="20" id="svg_14" y="102.39999" x="103.6" stroke-dasharray="5,5" stroke-width="0" stroke="#000000" fill="#000000">Bob</text>
  </g>
  <g id="svg_23">
   <rect stroke="#000000" stroke-dasharray="5,5" id="svg_12" height="82" width="160" y="184.4" x="496" fill="none"/>
   <text xml:space="preserve" text-anchor="start" font-family="'Open Sans'" font-size="20" id="svg_17" y="219.39999" x="507.6" fill="#000000">Message Read</text>
   <text xml:space="preserve" text-anchor="start" font-family="'Open Sans'" font-size="20" id="svg_19" y="247.39999" x="538.6" stroke-dasharray="5,5" fill="#000000">by Bob</text>
  </g>
  <g id="svg_26">
   <rect stroke="#000000" id="svg_24" height="42" width="201" y="205" x="40" fill="none"/>
   <text xml:space="preserve" text-anchor="start" font-family="'Open Sans'" font-size="20" stroke-width="0" id="svg_25" y="233" x="51.6" stroke="#000000" fill="#000000">Encrypted Message</text>
  </g>
  <path id="svg_27" d="m254.89651,236.30478l9.33174,-8.5892l-9.33174,-8.58925l5.33356,-4.90865l14.66644,13.4979l-14.66644,13.5021" stroke-width="0" stroke="#000000" fill="#000000"/>
  <rect stroke="#000000" id="svg_28" height="65" width="160" y="196.4" x="287" fill="none"/>
  <text xml:space="preserve" text-anchor="start" font-family="'Open Sans'" font-size="20" id="svg_29" y="225.39999" x="310.6" stroke-width="0" stroke="#000000" fill="#000000">Alice's Public</text>
  <text stroke="#000000" xml:space="preserve" text-anchor="start" font-family="'Open Sans'" font-size="20" stroke-width="0" id="svg_30" y="248.39999" x="352.6" fill="#000000">Key</text>
  <path id="svg_32" d="m460.89651,236.30478l9.33174,-8.5892l-9.33174,-8.58925l5.33356,-4.90865l14.66644,13.4979l-14.66644,13.5021" stroke-width="0" stroke="#000000" fill="#000000"/>
  <line id="svg_33" y2="130" x2="576.6" y1="100" x1="576.6" stroke="#000000" fill="none"/>
  <line stroke="#000000" id="svg_34" y2="128.39999" x2="139" y1="128.39999" x1="577" fill="none"/>
  <line id="svg_35" y2="189.39999" x2="138.6" y1="128" x1="139.6" stroke="#000000" fill="none"/>
  <g id="svg_39">
   <rect stroke="#000000" id="svg_36" height="42" width="201" y="134" x="242" fill="none"/>
   <text xml:space="preserve" text-anchor="start" font-family="'Open Sans'" font-size="20" stroke-width="0" id="svg_37" y="162" x="260.6" stroke="#000000" fill="#000000">From Alice to Bob</text>
  </g>
  <path transform="rotate(90 138.897 188.718)" id="svg_40" d="m128.89651,197.30478l9.33174,-8.5892l-9.33174,-8.58925l5.33356,-4.90865l14.66644,13.4979l-14.66644,13.5021" stroke-width="0" stroke="#000000" fill="#000000"/>
  <path transform="rotate(90 576.897 99.718)" id="svg_42" d="m566.89651,108.30478l9.33174,-8.5892l-9.33174,-8.58925l5.33356,-4.90865l14.66644,13.4979l-14.66644,13.5021" stroke-width="0" stroke="#000000" fill="#000000"/>
 </g>
</svg>