<svg width="600" height="400" xmlns="http://www.w3.org/2000/svg">
 <g id="Layer_1">
  <title>Layer 1</title>
  <rect id="svg_1" height="43" width="110" y="22.4" x="36.6" stroke="#000" fill="#fff"/>
  <text font-style="normal" font-weight="normal" xml:space="preserve" text-anchor="start" font-family="'Open Sans'" font-size="20" id="svg_2" y="52.4" x="69.6" stroke-width="0" stroke="#000" fill="#000000">User</text>
  <line stroke-linecap="undefined" stroke-linejoin="undefined" id="svg_3" y2="307" x2="92" y1="65" x1="92" stroke="#000" fill="none"/>
  <rect stroke="#000" id="svg_9" height="43" width="168.00001" y="22.4" x="409.6" fill="#fff"/>
  <text font-style="normal" font-weight="normal" xml:space="preserve" text-anchor="start" font-family="'Open Sans'" font-size="20" id="svg_10" y="50.4" x="440.6" stroke-width="0" stroke="#000" fill="#000000">Warehouse</text>
  <line stroke-linecap="undefined" stroke-linejoin="undefined" id="svg_11" y2="350" x2="491" y1="65" x1="491" stroke="#000" fill="none"/>
  <rect stroke="#000" id="svg_13" height="43" width="122" y="23.4" x="223.59999" fill="#fff"/>
  <text font-style="normal" font-weight="normal" xml:space="preserve" text-anchor="start" font-family="'Open Sans'" font-size="20" id="svg_14" y="52.4" x="239.6" stroke-width="0" stroke="#000" fill="#000000">Front-End</text>
  <line stroke-linecap="undefined" stroke-linejoin="undefined" id="svg_15" y2="350" x2="286" y1="66" x1="286" stroke="#000" fill="none"/>
  <g id="svg_21">
   <rect stroke="#000" id="svg_18" height="32" width="120" y="114.4" x="131.6" fill="#fff"/>
   <text font-style="normal" font-weight="normal" xml:space="preserve" text-anchor="start" font-family="'Open Sans'" font-size="15" id="svg_19" y="136.4" x="142.6" stroke-width="0" stroke="#000" fill="#000000">Login Request</text>
  </g>
  <g id="svg_22">
   <line id="svg_17" y2="106" x2="284" y1="106" x1="92" stroke="#000" fill="none"/>
   <path id="svg_20" d="m271.0345,112.61657l6.53222,-6.9986l-6.53222,-6.99865l3.73349,-3.99964l10.26651,10.99829l-10.26651,11.00171" stroke-width="0" stroke="#000" fill="#000000"/>
  </g>
  <g transform="rotate(180 191.517 165.62)" id="svg_25">
   <line id="svg_23" y2="166" x2="287" y1="166" x1="95" stroke="#000" fill="none"/>
   <path id="svg_24" d="m274.0345,172.61657l6.53222,-6.9986l-6.53222,-6.99865l3.7335,-3.99964l10.2665,10.99829l-10.2665,11.00171" stroke-width="0" stroke="#000" fill="#000000"/>
  </g>
  <rect stroke="#000" id="svg_26" height="32" width="120" y="175.4" x="133.6" fill="#fff"/>
  <text font-style="normal" font-weight="normal" xml:space="preserve" text-anchor="start" font-family="'Open Sans'" font-size="15" id="svg_27" y="197.4" x="151.6" stroke-width="0" stroke="#000" fill="#000000">Login Info.?</text>
  <g id="svg_34">
   <line id="svg_32" y2="226" x2="285" y1="226" x1="93" stroke="#000" fill="none"/>
   <path id="svg_33" d="m272.0345,232.61657l6.53222,-6.9986l-6.53222,-6.99865l3.7335,-3.99964l10.2665,10.99829l-10.2665,11.00171" stroke-width="0" stroke="#000" fill="#000000"/>
  </g>
  <g id="svg_37">
   <rect stroke="#000" id="svg_35" height="32" width="120" y="236.4" x="131.6" fill="#fff"/>
   <text font-style="normal" font-weight="normal" xml:space="preserve" text-anchor="start" font-family="'Open Sans'" font-size="15" id="svg_36" y="258.4" x="155.6" stroke-width="0" stroke="#000" fill="#000000">User/Pass.</text>
  </g>
  <g id="svg_51">
   <line stroke="#000" id="svg_38" y2="246" x2="487.01609" y1="246" x1="288" fill="none"/>
   <path stroke="#000" id="svg_39" d="m476.25208,252.61657l6.4307,-6.9986l-6.4307,-6.99865l3.67548,-3.99964l10.10695,10.99829l-10.10695,11.00171" stroke-width="0" fill="#000000"/>
  </g>
  <g transform="rotate(180 390.017 290.62)" id="svg_54">
   <line stroke="#000" id="svg_52" y2="291" x2="488.01609" y1="291" x1="289" fill="none"/>
   <path stroke="#000" id="svg_53" d="m477.25208,297.61657l6.4307,-6.9986l-6.4307,-6.99865l3.67547,-3.99964l10.10695,10.99829l-10.10695,11.00171" stroke-width="0" fill="#000000"/>
  </g>
  <g id="svg_56">
   <rect stroke="#000" id="svg_42" height="32" width="120" y="252.4" x="329.6" fill="#fff"/>
   <text font-style="normal" font-weight="normal" xml:space="preserve" text-anchor="start" font-family="'Open Sans'" font-size="15" id="svg_43" y="274.4" x="344.6" stroke-width="0" stroke="#000" fill="#000000">User's Object</text>
  </g>
  <rect stroke="#000" id="svg_57" height="32" width="120" y="296.4" x="330.6" fill="#fff"/>
  <text style="cursor: move;" font-style="normal" font-weight="normal" xml:space="preserve" text-anchor="start" font-family="'Open Sans'" font-size="15" id="svg_58" y="318.4" x="345.6" stroke-width="0" stroke="#000" fill="#000000">User's Data</text>
 </g>

</svg>